<svg xmlns="http://www.w3.org/2000/svg" viewBox="0 0 512 512">
  <defs>
    <linearGradient id="g" x1="0" y1="0" x2="1" y2="1">
      <stop offset="0" stop-color="#0ea5e9"/>
      <stop offset="1" stop-color="#a855f7"/>
    </linearGradient>
  </defs>
  <rect width="512" height="512" rx="112" fill="#0b0b0f"/>
  <path d="M256 90c92 0 166 74 166 166s-74 166-166 166S90 348 90 256 164 90 256 90Z" fill="none" stroke="url(#g)" stroke-width="28" opacity="0.95"/>
  <path d="M258 150c-7 0-13 4-16 10l-80 196c-4 9 3 19 13 19h24c6 0 12-4 14-10l16-42h94l16 42c2 6 8 10 14 10h24c10 0 17-10 13-19l-80-196c-3-6-9-10-16-10Zm-9 134 27-71 27 71h-54Z" fill="#ffffff"/>
</svg>
